PathFileType	4	(X/Y/Z)	..\data\SUBJ01\dynamic\walk.trc
DataRate	CameraRate	NumFrames	NumMarkers	Units	OrigDataRate	OrigDataStartFrame	OrigNumFrames
100.000000	100.000000	6	21	mm	100.000000	26	337
Frame#	Time	C7			T10			CLAV			STRN			LSHO			RSHO			LASI			RASI			SACR			LTHI			LKNE			LTIB			LANK			LHEE			LTOE			RTHI			RKNE			RTIB			RANK			RHEE			RTOE			
		X1	Y1	Z1	X2	Y2	Z2	X3	Y3	Z3	X4	Y4	Z4	X5	Y5	Z5	X6	Y6	Z6	X7	Y7	Z7	X8	Y8	Z8	X9	Y9	Z9	X10	Y10	Z10	X11	Y11	Z11	X12	Y12	Z12	X13	Y13	Z13	X14	Y14	Z14	X15	Y15	Z15	X16	Y16	Z16	X17	Y17	Z17	X18	Y18	Z18	X19	Y19	Z19	X20	Y20	Z20	X21	Y21	Z21	

27	1.21	160.846923828125	1365.417602539063	22.04595035062721	90.19949340820314	1146.34228515625	22.04595035062721	306.2987060546876	1262.839721679688	21.95847742216747	361.0949707031251	1104.679443359375	22.04595035062721	216.6810302734376	1326.440063476563	-152.0801736032232	234.8387756347657	1291.741333007813	192.0803046712631	276.9504699707032	879.074890136719	-120.859251464656	273.0912780761719	864.5742187500002	160.859251464656	97.36067199707034	885.3535156250002	20	220.395492553711	598.8496704101564	-196.594804781495	238.5711517333985	428.6110229492189	-109.6938565403288	206.8585510253907	187.8700103759766	-159.4973066312762	207.4405670166016	62.05317687988283	-111.7562165806763	145.7419738769532	51.19167709350587	-65.58032746445977	312.1972656250001	46.91609954833985	-74.43897087404167	289.9981994628907	589.1805419921876	213.5914694104505	356.8706970214844	429.9834899902345	149.1302321308147	200.081283569336	259.0599975585938	196.2680469139518	97.7067794799805	183.7475738525391	152.8880051473318	54.98550033569337	211.5399932861329	105.7255595369172	167.8669738769532	93.46298217773439	114.6938823150058	
28	1.22	170.7134094238282	1365.920166015625	22.04595035062721	100.276481628418	1146.766723632813	22.04595035062721	316.2496643066407	1263.424926757813	21.95847742216747	371.0619812011719	1105.283325195313	22.04595035062721	227.6038665771485	1327.2822265625	-152.0801736032232	243.6210327148438	1292.190673828125	192.0803046712631	286.7027893066407	879.4340820312502	-120.859251464656	283.9553833007813	865.3458251953127	160.859251464656	107.5537185668946	885.814880371094	20	226.7715454101563	599.5848999023439	-196.594804781495	241.1296081542969	428.6118164062501	-109.6938565403288	207.7162170410157	187.9909362792969	-159.4973066312762	207.5573730468751	62.08914947509767	-111.7562165806763	145.8218994140625	51.39597320556642	-65.58032746445977	312.2546081542969	46.84692001342774	-74.43897087404167	305.9293518066407	591.7026977539064	213.5914694104505	375.7361145019532	433.7657165527345	149.1302321308147	225.8247528076172	255.9593200683594	196.2680469139518	126.983268737793	176.1218414306641	152.8880051473318	82.38854217529298	202.2822418212891	105.7255595369172	201.0270996093751	89.77223968505861	114.6938823150058	
29	1.23	180.5781860351563	1366.239135742188	22.04595035062721	110.358871459961	1147.0078125	22.04595035062721	326.1952209472657	1263.8349609375	21.95847742216747	381.0399780273438	1105.708251953125	22.04595035062721	238.4367370605469	1327.89404296875	-152.0801736032232	252.4271850585938	1292.515380859375	192.0803046712631	296.4403076171876	879.6224365234377	-120.859251464656	294.8572998046876	865.9219970703127	160.859251464656	117.7564086914063	886.0947875976565	20	233.047836303711	600.2647705078126	-196.594804781495	243.6808013916016	428.6080627441407	-109.6938565403288	208.5093536376954	188.1240997314453	-159.4973066312762	207.6478424072266	62.1255340576172	-111.7562165806763	145.9012298583985	51.61022186279298	-65.58032746445977	312.3196105957032	46.78027725219727	-74.43897087404167	321.4125976562501	593.9803466796876	213.5914694104505	393.9431152343751	437.2805480957032	149.1302321308147	251.6372070312501	252.5214843750001	196.2680469139518	156.8738555908203	167.9717712402344	152.8880051473318	110.4871597290039	192.2145080566407	105.7255595369172	234.7987060546876	85.77851867675783	114.6938823150058	
30	1.24	190.45458984375	1366.37158203125	22.04595035062721	120.4509811401367	1147.066162109375	22.04595035062721	336.1429138183594	1264.062255859375	21.95847742216747	391.0318298339845	1105.945434570313	22.04595035062721	249.1799621582032	1328.27294921875	-152.0801736032232	261.2782897949219	1292.70751953125	192.0803046712631	306.1606445312501	879.632507324219	-120.859251464656	305.7695007324219	866.283874511719	160.859251464656	127.9720230102539	886.1936645507815	20	239.2253112792969	600.8851318359376	-196.594804781495	246.254135131836	428.5970153808595	-109.6938565403288	209.2499542236329	188.2698211669922	-159.4973066312762	207.7164154052735	62.16527175903322	-111.7562165806763	145.9781799316407	51.84013748168947	-65.58032746445977	312.3890075683594	46.71269607543946	-74.43897087404167	336.3769226074219	595.9513549804689	213.5914694104505	411.4400329589845	440.467742919922	149.1302321308147	277.5083007812501	248.7932281494141	196.2680469139518	187.379379272461	159.4305267333985	152.8880051473318	139.322509765625	181.4781036376953	105.7255595369172	269.1518859863282	81.6184539794922	114.6938823150058	
31	1.25	200.3542175292969	1366.317749023438	22.04595035062721	130.5564727783203	1146.944458007813	22.04595035062721	346.0997619628907	1264.101684570313	21.95847742216747	401.039520263672	1105.989990234375	22.04595035062721	259.8385009765626	1328.420654296875	-152.0801736032232	270.1929931640626	1292.762084960938	192.0803046712631	315.8631591796876	879.4594726562502	-120.859251464656	316.6669006347657	866.416198730469	160.859251464656	138.2039642333985	886.1137695312502	20	245.3062286376954	601.4417724609376	-196.594804781495	248.8802490234376	428.5750732421876	-109.6938565403288	209.9517669677735	188.4285430908203	-159.4973066312762	207.7682189941407	62.21266174316408	-111.7562165806763	146.0520477294922	52.09186935424806	-65.58032746445977	312.4593505859376	46.64008712768555	-74.43897087404167	350.7818298339844	597.5670776367189	213.5914694104505	428.1798095703126	443.2663879394532	149.1302321308147	303.4259948730469	244.823471069336	196.2680469139518	218.4959564208985	150.631088256836	152.8880051473318	168.9308471679688	170.2269287109375	105.7255595369172	304.0554809570313	77.43552398681642	114.6938823150058	
32	1.26	210.2868804931641	1366.080200195313	22.04595035062721	140.6788024902344	1146.647216796875	22.04595035062721	356.0728759765626	1263.951416015625	21.95847742216747	411.0650329589845	1105.840698242188	22.04595035062721	270.4216613769532	1328.342895507813	-152.0801736032232	279.1880187988282	1292.676635742188	192.0803046712631	325.5496826171876	879.1014404296877	-120.859251464656	327.5322265625001	866.309265136719	160.859251464656	148.4559326171875	885.8587646484377	20	251.2972869873047	601.9306640625001	-196.594804781495	251.5912322998047	428.5371704101564	-109.6938565403288	210.6313781738282	188.6007385253907	-159.4973066312762	207.8086700439454	62.27305603027345	-111.7562165806763	146.1238403320313	52.37218856811525	-65.58032746445977	312.5278320312501	46.55892562866212	-74.43897087404167	364.6119995117188	598.7932128906251	213.5914694104505	444.1216125488282	445.6155090332032	149.1302321308147	329.3748779296876	240.6670532226563	196.2680469139518	250.2163696289063	141.7117309570313	152.8880051473318	199.3397369384766	158.6283874511719	105.7255595369172	339.4724426269532	73.38072967529298	114.6938823150058	
